<?xml version="1.0" encoding="utf-8"?>
<!-- Generator: Adobe Illustrator 25.4.1, SVG Export Plug-In . SVG Version: 6.00 Build 0)  -->
<svg version="1.1" id="Layer_1" xmlns="http://www.w3.org/2000/svg" xmlns:xlink="http://www.w3.org/1999/xlink" x="0px" y="0px"
	 viewBox="0 0 594 153" style="enable-background:new 0 0 594 153;" xml:space="preserve">
<style type="text/css">
	.st0{fill:#FFFFFF;}
	.st1{fill:#0000FF;}
</style>
<g>
	<path class="st0" d="M58.1,126.3c-7.8,0-14.3-1.5-19.7-4.4s-9.5-6.9-12.3-12.1c-2.8-5.1-4.2-11-4.2-17.7c0-6.4,1.6-12.2,4.9-17.3
		c3.3-5.1,7.7-9.2,13.2-12.3c5.5-3.1,11.7-4.6,18.5-4.6c9.1,0,16.6,2.6,22.5,7.9s9.7,12.9,11.4,22.9L43,104.5l-4.5-11l35.8-12.1
		L70,83.2c-0.8-2.5-2.2-4.7-4.1-6.6c-2-1.9-5-2.8-8.9-2.8c-3,0-5.6,0.7-7.9,2.1c-2.3,1.4-4,3.4-5.2,6s-1.8,5.6-1.8,9.1
		c0,4,0.7,7.3,2.2,10s3.4,4.7,6,6c2.5,1.4,5.3,2,8.4,2c2.2,0,4.4-0.4,6.5-1.2c2.1-0.8,4.1-1.8,6.2-3.1l9,15.1
		c-3.4,1.9-7.1,3.5-11,4.7C65.3,125.7,61.6,126.3,58.1,126.3z"/>
	<path class="st0" d="M125.7,61l1.6,11.3l-0.3-1c2.2-4,5.4-7.2,9.4-9.7c4.1-2.5,9.1-3.7,15-3.7c6,0,11,1.8,15,5.3
		c4,3.5,6.1,8.1,6.2,13.7v47.5h-20.4v-40c-0.1-2.8-0.9-5.1-2.3-6.8c-1.4-1.7-3.8-2.5-7.1-2.5c-3.1,0-5.8,1-8.1,3.1s-4.1,4.8-5.4,8.3
		c-1.3,3.5-1.9,7.5-1.9,12.1v25.9H107V61H125.7z"/>
	<path class="st1" d="M196.9,124.5v-107h32c10.8,0,19.9,1.6,27.5,4.8s13.6,7.5,18.2,12.8s8,11.3,10.1,17.9s3.2,13.2,3.2,19.9
		c0,7.9-1.4,15.1-4.3,21.4s-6.8,11.8-11.7,16.3c-4.9,4.5-10.7,7.9-17.2,10.3c-6.5,2.4-13.4,3.6-20.6,3.6L196.9,124.5L196.9,124.5z
		 M218,104.2h12.5c5.3,0,10.2-0.7,14.5-2.1c4.4-1.4,8.1-3.5,11.3-6.2c3.1-2.7,5.6-6.1,7.3-10.2c1.7-4.1,2.5-8.8,2.5-14.2
		c0-7-1.1-12.7-3.4-17.1s-5.1-7.8-8.4-10.2c-3.3-2.4-6.8-4.1-10.2-5c-3.5-0.9-6.4-1.4-8.9-1.4H218V104.2L218,104.2z"/>
	<path class="st1" d="M289.7,124.5L338,13.3h1.2l48.3,111.2h-24.4l-30.8-78.2l15.3-10.5l-36.9,88.7H289.7z M322.7,85.8h32.1
		l7.4,17.7h-46.1L322.7,85.8z"/>
	<path class="st1" d="M435.3,17.5c8.8,0,16.3,1.5,22.4,4.4c6.1,3,10.8,7.1,14,12.5s4.8,11.8,4.8,19.1c0,4.4-0.7,8.7-2,13.2
		c-1.3,4.4-3.4,8.4-6.2,12c-2.9,3.6-6.7,6.5-11.5,8.6c-4.8,2.2-10.7,3.3-17.7,3.3H424v33.9h-21.1v-107H435.3z M439,70.1
		c3.2,0,5.9-0.6,8-1.7s3.8-2.5,5-4.2c1.2-1.7,2.1-3.5,2.6-5.3s0.8-3.4,0.8-4.8c0-1.1-0.2-2.5-0.5-4.3s-1-3.6-2.1-5.5
		c-1.1-1.8-2.7-3.4-4.9-4.7c-2.2-1.3-5.1-1.9-8.8-1.9H424V70L439,70.1L439,70.1z"/>
	<path class="st1" d="M527.8,17.5c8.8,0,16.3,1.5,22.4,4.4c6.1,3,10.8,7.1,14,12.5s4.8,11.8,4.8,19.1c0,4.4-0.7,8.7-2,13.2
		c-1.3,4.4-3.4,8.4-6.2,12c-2.9,3.6-6.7,6.5-11.5,8.6c-4.8,2.2-10.7,3.3-17.7,3.3h-15.1v33.9h-21.1v-107H527.8z M531.4,70.1
		c3.2,0,5.9-0.6,8-1.7s3.8-2.5,5-4.2c1.2-1.7,2.1-3.5,2.6-5.3s0.8-3.4,0.8-4.8c0-1.1-0.2-2.5-0.5-4.3s-1-3.6-2.1-5.5
		c-1.1-1.8-2.7-3.4-4.9-4.7s-5.1-1.9-8.8-1.9h-15.1V70L531.4,70.1L531.4,70.1z"/>
</g>
</svg>
