<svg id="Layer_1" data-name="Layer 1" xmlns="http://www.w3.org/2000/svg" xmlns:xlink="http://www.w3.org/1999/xlink" viewBox="0 0 2622.84 462.09"><defs><linearGradient id="linear-gradient" x1="1254.31" y1="502.82" x2="1254.31" y2="141.07" gradientUnits="userSpaceOnUse"><stop offset="0" stop-color="#fff"/><stop offset="1" stop-color="#97c7eb"/></linearGradient><linearGradient id="linear-gradient-2" x1="1625.3" y1="502.82" x2="1625.3" y2="141.16" xlink:href="#linear-gradient"/><linearGradient id="linear-gradient-3" x1="2063.95" y1="503.33" x2="2063.95" y2="141.67" xlink:href="#linear-gradient"/><linearGradient id="linear-gradient-4" x1="2632.72" y1="503.38" x2="2632.72" y2="141.72" xlink:href="#linear-gradient"/><linearGradient id="linear-gradient-5" x1="2990.93" y1="591.34" x2="2990.93" y2="140.72" xlink:href="#linear-gradient"/><linearGradient id="linear-gradient-6" x1="857.23" y1="602.82" x2="857.23" y2="142" xlink:href="#linear-gradient"/><linearGradient id="linear-gradient-7" x1="2364.5" y1="503.89" x2="2364.5" y2="142.23" xlink:href="#linear-gradient"/></defs><path d="M1473.08,502.82H1240.56l.21-.24H1035.55l61.56-65.43V207.72l-61.21-66.56H1268l-.22.24h114.17l69-.33L1320.71,329.13Zm-266.37-66.56,47.22,51.31,32.49-37.07-79.71-102.59Zm78,46.56h144.24L1295.37,330.58,1412.6,161.26l-30.64.14h-97.31l25.69,29.4-95.87,134.51,97.87,126Zm-202.86-.24h140.32l-35.44-38.51V198.92l35.23-37.76H1081.47l35.64,38.76V445.08Zm124.88-275.77v94.94l78.17-109.69-31.16-35.64Z" transform="translate(-608.55 -140.72)" style="fill:url(#linear-gradient)"/><path d="M1743.09,502.82H1507.55l62.12-65.91V350.2L1476.91,192l-73.51-50.8h443.8L1774,192,1681.21,350.2v86.72Zm-189.21-20h143l-35.66-38V344.77L1759,178l24.32-16.88H1658.48l32,22.67L1625.45,293.7l-65.28-109.87,32-22.67H1467.52l24.4,16.87,97.75,166.74V444.85ZM1586.8,189.5l38.62,65,38.49-65-38.56-27.27Z" transform="translate(-608.55 -140.72)" style="fill:url(#linear-gradient-2)"/><path d="M2146.58,503.33H1981.39L1925.22,446V200.31l56.1-58.64h165.21l56.16,57.64v17.88h-111v-9.73l-27.58-28.1-27.9,29V437.78l27.56,28.07,27.92-29.19v-163h111v171Zm-71.84-20H2138l44.65-46.67v-143h-71v151Zm-84.94,0h63.1L2016.21,446V200.3l37.17-38.63h-63.51l-44.65,46.67V437.79Zm119.83-286.14h63.07l-34.61-35.52h-63.32Z" transform="translate(-608.55 -140.72)" style="fill:url(#linear-gradient-3)"/><path d="M2742.31,503.38h-272.4L2530.6,438V208.24l-60.34-66.52h272.12l53.14,58.81v245.3Zm-61.3-20h52.55l42-45.38V208.23l-42-46.51H2681l-3.43,3.73,31.7,35.08v245.3l-31.43,34Zm-165.25,0h131.51l3.43-3.71L2619,444.58V199.52l31.48-34.19-3.26-3.61H2515.41l35.19,38.8V445.84ZM2639,436.88l25.35,28.05,24.9-26.93V208.23l-25.3-28L2639,207.33Z" transform="translate(-608.55 -140.72)" style="fill:url(#linear-gradient-4)"/><path d="M2750.46,591.34,2795,521.57l-.68-.32,188.58-293.77-7.38-6.75-37.38-38.51-34.84,36.18V322.88L2770.23,157.55V140.72H3231.4l-125.34,55.54L3136.73,224l-109.79,171L3167.25,525,3104,590.29H2879.73Zm73.19-78.69.63.29L2787.16,571l92.48-.75h101.62l-57.44-51.58L3110.75,227.5l-40.92-37.06,67.06-29.72H2945.18l.14.15,44.38,45.71,19.19,17.49ZM3042,436.25l11.35,85.87-54.57,48.17h96.82l43.1-44.54Zm-92.12,79,40.2,36.09,42-37.11-13.92-105.41ZM2798.46,160.72l84.88,105.43V210.33l47.77-49.61Z" transform="translate(-608.55 -140.72)" style="fill:url(#linear-gradient-5)"/><path d="M1105.91,602.82l-133.67-1.07H739.73l-65.36-66.63L820,402.18,706,227.09,738,198.56,608.55,142h477V159L948.19,327.27v-106l-36.53-37.41-39.33,40-7.54,6.78,195.67,300.69-.71.31ZM866.23,581.75H972.32l96.62.77-38.64-59.64.66-.3L838.69,227.11l19.81-17.8L905.05,162H704.25l70.27,30.72-42.37,37.85,194,298.11Zm-118.1,0h101.4l-57-49.61,11.89-88.71L703.16,535.91Zm65.69-57.62,44,38.33L900,525.14l-71.56-110ZM918.33,162l49.86,51.08v58L1057.26,162Z" transform="translate(-608.55 -140.72)" style="fill:url(#linear-gradient-6)"/><path d="M2447.13,503.89H2281.94l-56.18-57.38V200.87l56.11-58.64h165.21l56.16,57.64V445.25Zm-71.85-20h63.3l44.66-46.67V208l-44.6-45.77h-63.32l36.92,37.62v245.4Zm-84.93,0h63.1l-36.69-37.38V200.86l37.16-38.63h-63.51l-44.65,46.67V438.35Zm46.41-45.55,27.56,28.07,27.92-29.19V208l-27.58-28.1-27.9,29Z" transform="translate(-608.55 -140.72)" style="fill:url(#linear-gradient-7)"/></svg>