<svg xmlns="http://www.w3.org/2000/svg" xmlns:xlink="http://www.w3.org/1999/xlink" id="Layer_1" x="0px" y="0px" viewBox="0 0 500 50" style="enable-background:new 0 0 500 50;" xml:space="preserve"> <style type="text/css"> .st0{fill:#FFF9C7;} </style> <g> <path class="st0" d="M247.7,2h0.2l5.2,16.5c7.8-0.1,13.5-0.1,17.1-0.1h0.2v0.1l-13.9,10.1v0.1l5.3,16.3h-0.2 c-9.1-6.7-13.7-10.1-13.7-10.1c-0.7,0.4-5.3,3.8-13.9,10.1h-0.2l5.4-16.4c-8.5-6.2-13.2-9.5-14-10v-0.2h0.2c3.6,0,9.3,0,17.1,0.1 C245.9,7.6,247.7,2.1,247.7,2z"></path> </g> <g> <path class="st0" d="M148,7.8h0.2l3.9,12.3c5.8-0.1,10.1-0.1,12.8-0.1h0.2v0.1l-10.4,7.6v0.1l4,12.2h-0.2c-6.8-5-10.2-7.5-10.2-7.6 c-0.5,0.3-4,2.9-10.4,7.6h-0.2l4.1-12.3c-6.4-4.6-9.9-7.1-10.5-7.5v-0.2h0.2c2.7,0,6.9,0,12.8,0.1C146.7,12,148,7.9,148,7.8z"></path> </g> <g> <path class="st0" d="M72,13.3h0.1l2.7,8.7c4.1,0,7.1-0.1,9-0.1H84V22l-7.3,5.3v0.1l2.8,8.6h-0.1c-4.8-3.5-7.2-5.3-7.2-5.3 c-0.4,0.2-2.8,2-7.3,5.3h-0.1l2.9-8.6c-4.5-3.3-7-5-7.4-5.3V22h0.1c1.9,0,4.9,0,9,0.1C71.1,16.3,72,13.4,72,13.3z"></path> </g> <g> <path class="st0" d="M429,13.3h0.1l2.7,8.7c4.1,0,7.1-0.1,9-0.1h0.1V22l-7.3,5.3v0.1l2.8,8.6h-0.1c-4.8-3.5-7.2-5.3-7.2-5.3 c-0.4,0.2-2.8,2-7.3,5.3h-0.1l2.9-8.6c-4.5-3.3-7-5-7.4-5.3V22h0.1c1.9,0,4.9,0,9,0.1C428.1,16.3,429,13.4,429,13.3z"></path> </g> <g> <path class="st0" d="M350,7.8h0.2l3.9,12.3c5.8-0.1,10.1-0.1,12.8-0.1h0.2v0.1l-10.4,7.6v0.1l4,12.2h-0.2c-6.8-5-10.2-7.5-10.2-7.6 c-0.5,0.3-4,2.9-10.4,7.6h-0.2l4.1-12.3c-6.4-4.6-9.9-7.1-10.5-7.5v-0.2h0.2c2.7,0,6.9,0,12.8,0.1C348.7,12,350,7.9,350,7.8z"></path> </g> </svg>